<?xml version="1.0" standalone="no"?>
<!DOCTYPE svg PUBLIC "-//W3C//DTD SVG 20010904//EN"
 "http://www.w3.org/TR/2001/REC-SVG-20010904/DTD/svg10.dtd">
<svg version="1.0" xmlns="http://www.w3.org/2000/svg"
 width="500.000000pt" height="500.000000pt" viewBox="0 0 500.000000 500.000000"
 preserveAspectRatio="xMidYMid meet">

<g transform="translate(0.000000,500.000000) scale(0.100000,-0.100000)"
fill="#000000" stroke="none">
<path d="M0 2500 l0 -2500 2500 0 2500 0 0 2500 0 2500 -2500 0 -2500 0 0
-2500z m1287 763 c126 -42 174 -105 181 -238 7 -138 -37 -228 -138 -278 l-49
-25 61 -22 c119 -43 178 -135 178 -276 0 -131 -58 -232 -162 -283 -88 -42
-164 -51 -465 -51 l-283 0 0 601 0 601 308 -4 c276 -4 313 -6 369 -25z m543
-573 l0 -600 -115 0 -115 0 0 600 0 600 115 0 115 0 0 -600z m672 269 c289
-60 438 -370 309 -644 -52 -112 -150 -191 -286 -230 -81 -24 -247 -17 -325 14
-113 45 -209 139 -251 248 -31 81 -37 214 -14 299 20 74 75 164 129 212 106
93 282 134 438 101z m1128 -18 c41 -11 92 -27 113 -36 l37 -15 0 -438 c0 -497
-1 -506 -71 -586 -49 -56 -113 -90 -194 -105 -107 -20 -266 -10 -361 22 -37
12 -37 12 -62 115 -13 57 -22 105 -19 108 2 2 17 0 33 -7 54 -20 175 -39 255
-39 130 0 172 28 184 125 l7 50 -149 0 c-128 1 -156 4 -208 23 -93 35 -161 85
-205 152 -49 76 -65 142 -64 255 2 200 106 331 304 385 98 26 287 22 400 -9z
m785 10 c100 -21 165 -44 165 -61 0 -6 -14 -43 -31 -83 l-30 -73 -72 24 c-83
28 -245 36 -284 14 -28 -15 -37 -45 -23 -72 14 -26 51 -42 183 -82 158 -46
228 -91 269 -172 41 -81 22 -214 -40 -279 -101 -107 -375 -128 -617 -47 -36
12 -65 25 -65 28 0 4 12 42 27 85 24 68 31 78 48 73 11 -3 54 -15 95 -27 100
-28 260 -31 308 -6 29 16 33 22 30 54 -4 50 -31 66 -176 107 -236 67 -302 130
-302 289 0 127 77 203 245 240 50 11 188 5 270 -12z"/>
<path d="M840 2930 l0 -140 126 0 c149 0 202 11 241 52 25 26 28 37 28 93 0
49 -4 68 -20 85 -37 42 -75 50 -230 50 l-145 0 0 -140z"/>
<path d="M840 2460 l0 -150 168 0 c144 0 172 3 202 19 50 27 73 62 78 123 3
44 0 59 -20 88 -42 62 -71 70 -260 70 l-168 0 0 -150z"/>
<path d="M2280 2733 c-96 -49 -141 -150 -120 -265 21 -110 95 -177 205 -185
103 -9 186 34 233 121 23 43 23 189 0 231 -42 77 -105 116 -198 122 -57 4 -72
1 -120 -24z"/>
<path d="M3315 2751 c-40 -10 -86 -35 -107 -58 -63 -69 -63 -217 0 -286 41
-46 92 -61 202 -62 58 0 113 3 123 7 15 7 17 26 17 197 l0 190 -37 10 c-43 12
-152 13 -198 2z"/>
</g>
</svg>
